<svg xmlns="http://www.w3.org/2000/svg" viewBox="0 0 32 32" fill="none">
  <defs>
    <linearGradient id="bg" x1="6" y1="4" x2="26" y2="28" gradientUnits="userSpaceOnUse">
      <stop stop-color="#4f46e5"/>
      <stop offset="1" stop-color="#7c3aed"/>
    </linearGradient>
    <linearGradient id="gold" x1="16" y1="8" x2="16" y2="14" gradientUnits="userSpaceOnUse">
      <stop stop-color="#fde68a"/>
      <stop offset="1" stop-color="#f59e0b"/>
    </linearGradient>
  </defs>
  <rect x="2" y="2" width="28" height="28" rx="8" fill="url(#bg)"/>
  <path d="M10 11.5C10 10.67 10.67 10 11.5 10h4.25a.75.75 0 0 1 0 1.5H11.5a.5.5 0 0 0-.5.5v1a.75.75 0 0 1-1.5 0v-1Z" fill="#fff" fill-opacity=".92"/>
  <path d="M10 15.5c0-.83.67-1.5 1.5-1.5h8a.75.75 0 0 1 0 1.5h-8a.5.5 0 0 0-.5.5v1a.75.75 0 0 1-1.5 0v-1Z" fill="#fff" fill-opacity=".92"/>
  <path d="M10 19.5c0-.83.67-1.5 1.5-1.5h6.25a.75.75 0 0 1 0 1.5H11.5a.5.5 0 0 0-.5.5v1a.75.75 0 0 1-1.5 0v-1Z" fill="#fff" fill-opacity=".92"/>
  <path d="M22.9 8.4l.7 1.4 1.55.23-1.12 1.09.26 1.54-1.39-.73-1.39.73.26-1.54-1.12-1.09 1.55-.23.7-1.4Z" fill="url(#gold)"/>
  <circle cx="23.5" cy="23.5" r="3.5" fill="#fff" fill-opacity=".18"/>
</svg>
